<mxfile host="app.diagrams.net" agent="Mozilla/5.0 (Windows NT 10.0; Win64; x64) AppleWebKit/537.36 (KHTML, like Gecko) Chrome/131.0.0.0 Safari/537.36" version="26.0.7">
  <diagram name="Page-1" id="2YBvvXClWsGukQMizWep">
    <mxGraphModel dx="2350" dy="1846" grid="1" gridSize="10" guides="1" tooltips="1" connect="1" arrows="1" fold="1" page="1" pageScale="1" pageWidth="850" pageHeight="1100" math="0" shadow="0">
      <root>
        <mxCell id="0" />
        <mxCell id="1" parent="0" />
        <mxCell id="LFgzALB7pJh4BfB0Gn4e-6" value="Buy books" style="shape=umlFrame;whiteSpace=wrap;html=1;pointerEvents=0;" parent="1" vertex="1">
          <mxGeometry x="-420" y="-110" width="970" height="1500" as="geometry" />
        </mxCell>
        <mxCell id="LFgzALB7pJh4BfB0Gn4e-19" value="&lt;div style=&quot;direction: rtl;&quot;&gt;system&lt;/div&gt;" style="shape=umlLifeline;perimeter=lifelinePerimeter;whiteSpace=wrap;html=1;container=1;dropTarget=0;collapsible=0;recursiveResize=0;outlineConnect=0;portConstraint=eastwest;newEdgeStyle={&quot;edgeStyle&quot;:&quot;elbowEdgeStyle&quot;,&quot;elbow&quot;:&quot;vertical&quot;,&quot;curved&quot;:0,&quot;rounded&quot;:0};" parent="1" vertex="1">
          <mxGeometry x="45" y="-20" width="100" height="1340" as="geometry" />
        </mxCell>
        <mxCell id="LFgzALB7pJh4BfB0Gn4e-20" value="" style="html=1;points=[[0,0,0,0,5],[0,1,0,0,-5],[1,0,0,0,5],[1,1,0,0,-5]];perimeter=orthogonalPerimeter;outlineConnect=0;targetShapes=umlLifeline;portConstraint=eastwest;newEdgeStyle={&quot;curved&quot;:0,&quot;rounded&quot;:0};" parent="LFgzALB7pJh4BfB0Gn4e-19" vertex="1">
          <mxGeometry x="45" y="120" width="10" height="520" as="geometry" />
        </mxCell>
        <mxCell id="LFgzALB7pJh4BfB0Gn4e-85" value="" style="html=1;points=[[0,0,0,0,5],[0,1,0,0,-5],[1,0,0,0,5],[1,1,0,0,-5]];perimeter=orthogonalPerimeter;outlineConnect=0;targetShapes=umlLifeline;portConstraint=eastwest;newEdgeStyle={&quot;curved&quot;:0,&quot;rounded&quot;:0};" parent="LFgzALB7pJh4BfB0Gn4e-19" vertex="1">
          <mxGeometry x="45" y="750" width="10" height="450" as="geometry" />
        </mxCell>
        <mxCell id="LFgzALB7pJh4BfB0Gn4e-22" value="" style="edgeStyle=orthogonalEdgeStyle;rounded=0;orthogonalLoop=1;jettySize=auto;html=1;curved=0;dashed=1;" parent="1" edge="1">
          <mxGeometry x="-0.0837" y="-10" relative="1" as="geometry">
            <mxPoint x="-142.5" y="480" as="sourcePoint" />
            <mxPoint x="-327.5" y="480" as="targetPoint" />
            <Array as="points">
              <mxPoint x="-252.5" y="480" />
              <mxPoint x="-252.5" y="480" />
            </Array>
            <mxPoint as="offset" />
          </mxGeometry>
        </mxCell>
        <mxCell id="LFgzALB7pJh4BfB0Gn4e-24" value="&lt;div style=&quot;direction: rtl;&quot;&gt;&lt;span style=&quot;background-color: transparent; color: light-dark(rgb(0, 0, 0), rgb(255, 255, 255));&quot;&gt;select book and click&lt;/span&gt;&lt;/div&gt;&lt;div style=&quot;direction: rtl;&quot;&gt;&lt;span style=&quot;background-color: transparent; color: light-dark(rgb(0, 0, 0), rgb(255, 255, 255));&quot;&gt;&amp;nbsp;&quot;Add to Cart&quot;&lt;/span&gt;&lt;/div&gt;" style="text;html=1;align=center;verticalAlign=middle;resizable=0;points=[];autosize=1;strokeColor=none;fillColor=none;" parent="1" vertex="1">
          <mxGeometry x="-300" y="50" width="130" height="40" as="geometry" />
        </mxCell>
        <mxCell id="LFgzALB7pJh4BfB0Gn4e-44" style="edgeStyle=orthogonalEdgeStyle;rounded=0;orthogonalLoop=1;jettySize=auto;html=1;exitX=0.5;exitY=1;exitDx=0;exitDy=0;" parent="1" edge="1">
          <mxGeometry relative="1" as="geometry">
            <mxPoint x="310.5" y="340" as="sourcePoint" />
            <mxPoint x="310.5" y="340" as="targetPoint" />
          </mxGeometry>
        </mxCell>
        <mxCell id="LFgzALB7pJh4BfB0Gn4e-51" value="" style="endArrow=classic;html=1;rounded=0;" parent="1" edge="1" target="tG8exCwuBNUabjfaIiy4-7">
          <mxGeometry width="50" height="50" relative="1" as="geometry">
            <mxPoint x="-325" y="89.55" as="sourcePoint" />
            <mxPoint x="-150" y="89.55" as="targetPoint" />
            <Array as="points">
              <mxPoint x="-170" y="89.55" />
            </Array>
          </mxGeometry>
        </mxCell>
        <mxCell id="LFgzALB7pJh4BfB0Gn4e-52" value="&lt;div style=&quot;direction: rtl;&quot;&gt;Database&lt;span style=&quot;white-space: pre;&quot;&gt;&#x9;&lt;/span&gt;&lt;/div&gt;" style="shape=umlLifeline;perimeter=lifelinePerimeter;whiteSpace=wrap;html=1;container=1;dropTarget=0;collapsible=0;recursiveResize=0;outlineConnect=0;portConstraint=eastwest;newEdgeStyle={&quot;edgeStyle&quot;:&quot;elbowEdgeStyle&quot;,&quot;elbow&quot;:&quot;vertical&quot;,&quot;curved&quot;:0,&quot;rounded&quot;:0};" parent="1" vertex="1">
          <mxGeometry x="210" y="-20" width="100" height="1340" as="geometry" />
        </mxCell>
        <mxCell id="LFgzALB7pJh4BfB0Gn4e-54" value="" style="html=1;points=[[0,0,0,0,5],[0,1,0,0,-5],[1,0,0,0,5],[1,1,0,0,-5]];perimeter=orthogonalPerimeter;outlineConnect=0;targetShapes=umlLifeline;portConstraint=eastwest;newEdgeStyle={&quot;curved&quot;:0,&quot;rounded&quot;:0};" parent="LFgzALB7pJh4BfB0Gn4e-52" vertex="1">
          <mxGeometry x="45" y="160" width="10" height="80" as="geometry" />
        </mxCell>
        <mxCell id="LFgzALB7pJh4BfB0Gn4e-89" value="" style="html=1;points=[[0,0,0,0,5],[0,1,0,0,-5],[1,0,0,0,5],[1,1,0,0,-5]];perimeter=orthogonalPerimeter;outlineConnect=0;targetShapes=umlLifeline;portConstraint=eastwest;newEdgeStyle={&quot;curved&quot;:0,&quot;rounded&quot;:0};" parent="LFgzALB7pJh4BfB0Gn4e-52" vertex="1">
          <mxGeometry x="45" y="795" width="10" height="80" as="geometry" />
        </mxCell>
        <mxCell id="LFgzALB7pJh4BfB0Gn4e-88" style="edgeStyle=orthogonalEdgeStyle;rounded=0;orthogonalLoop=1;jettySize=auto;html=1;exitX=0.5;exitY=1;exitDx=0;exitDy=0;" parent="LFgzALB7pJh4BfB0Gn4e-52" edge="1">
          <mxGeometry relative="1" as="geometry">
            <mxPoint x="7" y="763.09" as="sourcePoint" />
            <mxPoint x="7" y="763.09" as="targetPoint" />
          </mxGeometry>
        </mxCell>
        <mxCell id="LFgzALB7pJh4BfB0Gn4e-92" value="" style="endArrow=classic;html=1;rounded=0;" parent="LFgzALB7pJh4BfB0Gn4e-52" target="LFgzALB7pJh4BfB0Gn4e-89" edge="1">
          <mxGeometry width="50" height="50" relative="1" as="geometry">
            <mxPoint x="-110" y="817" as="sourcePoint" />
            <mxPoint x="120" y="817" as="targetPoint" />
            <Array as="points">
              <mxPoint x="40" y="817" />
            </Array>
          </mxGeometry>
        </mxCell>
        <mxCell id="LFgzALB7pJh4BfB0Gn4e-93" value="&lt;font style=&quot;font-size: 10px;&quot;&gt;records the purchase and&lt;br&gt;update inventory&lt;/font&gt;" style="text;html=1;align=center;verticalAlign=middle;resizable=0;points=[];autosize=1;strokeColor=none;fillColor=none;" parent="LFgzALB7pJh4BfB0Gn4e-52" vertex="1">
          <mxGeometry x="-105" y="780" width="140" height="40" as="geometry" />
        </mxCell>
        <mxCell id="LFgzALB7pJh4BfB0Gn4e-94" value="" style="edgeStyle=orthogonalEdgeStyle;rounded=0;orthogonalLoop=1;jettySize=auto;html=1;curved=0;dashed=1;" parent="LFgzALB7pJh4BfB0Gn4e-52" target="LFgzALB7pJh4BfB0Gn4e-85" edge="1">
          <mxGeometry x="-0.0837" y="-10" relative="1" as="geometry">
            <mxPoint x="45" y="845" as="sourcePoint" />
            <mxPoint x="-131.5" y="845" as="targetPoint" />
            <Array as="points">
              <mxPoint x="45" y="860" />
            </Array>
            <mxPoint as="offset" />
          </mxGeometry>
        </mxCell>
        <mxCell id="tG8exCwuBNUabjfaIiy4-8" style="edgeStyle=orthogonalEdgeStyle;rounded=0;orthogonalLoop=1;jettySize=auto;html=1;exitX=0.5;exitY=1;exitDx=0;exitDy=0;" edge="1" parent="LFgzALB7pJh4BfB0Gn4e-52">
          <mxGeometry relative="1" as="geometry">
            <mxPoint x="-390" y="841.09" as="sourcePoint" />
            <mxPoint x="-390" y="841.09" as="targetPoint" />
          </mxGeometry>
        </mxCell>
        <mxCell id="tG8exCwuBNUabjfaIiy4-23" value="" style="html=1;points=[[0,0,0,0,5],[0,1,0,0,-5],[1,0,0,0,5],[1,1,0,0,-5]];perimeter=orthogonalPerimeter;outlineConnect=0;targetShapes=umlLifeline;portConstraint=eastwest;newEdgeStyle={&quot;curved&quot;:0,&quot;rounded&quot;:0};" vertex="1" parent="LFgzALB7pJh4BfB0Gn4e-52">
          <mxGeometry x="45" y="380" width="10" height="80" as="geometry" />
        </mxCell>
        <mxCell id="LFgzALB7pJh4BfB0Gn4e-110" value="" style="html=1;points=[[0,0,0,0,5],[0,1,0,0,-5],[1,0,0,0,5],[1,1,0,0,-5]];perimeter=orthogonalPerimeter;outlineConnect=0;targetShapes=umlLifeline;portConstraint=eastwest;newEdgeStyle={&quot;curved&quot;:0,&quot;rounded&quot;:0};" parent="LFgzALB7pJh4BfB0Gn4e-52" vertex="1">
          <mxGeometry x="45" y="1050" width="10" height="80" as="geometry" />
        </mxCell>
        <mxCell id="LFgzALB7pJh4BfB0Gn4e-55" value="" style="endArrow=classic;html=1;rounded=0;" parent="1" target="LFgzALB7pJh4BfB0Gn4e-54" edge="1">
          <mxGeometry width="50" height="50" relative="1" as="geometry">
            <mxPoint x="100" y="159.99999999999977" as="sourcePoint" />
            <mxPoint x="250" y="160" as="targetPoint" />
            <Array as="points">
              <mxPoint x="190" y="160" />
            </Array>
          </mxGeometry>
        </mxCell>
        <mxCell id="LFgzALB7pJh4BfB0Gn4e-57" value="updates the cart" style="text;html=1;align=center;verticalAlign=middle;resizable=0;points=[];autosize=1;strokeColor=none;fillColor=none;" parent="1" vertex="1">
          <mxGeometry x="125" y="138" width="110" height="30" as="geometry" />
        </mxCell>
        <mxCell id="LFgzALB7pJh4BfB0Gn4e-59" value="&lt;div style=&quot;direction: rtl;&quot;&gt;&lt;span style=&quot;background-color: transparent; color: light-dark(rgb(0, 0, 0), rgb(255, 255, 255));&quot;&gt;confirms the cart update&lt;/span&gt;&lt;/div&gt;" style="text;html=1;align=center;verticalAlign=middle;resizable=0;points=[];autosize=1;strokeColor=none;fillColor=none;" parent="1" vertex="1">
          <mxGeometry x="105" y="190" width="150" height="30" as="geometry" />
        </mxCell>
        <mxCell id="LFgzALB7pJh4BfB0Gn4e-60" value="" style="endArrow=classic;html=1;rounded=0;" parent="1" edge="1">
          <mxGeometry width="50" height="50" relative="1" as="geometry">
            <mxPoint x="-327.5" y="320.55" as="sourcePoint" />
            <mxPoint x="-142.5" y="320.55" as="targetPoint" />
            <Array as="points">
              <mxPoint x="-162.5" y="320.55" />
            </Array>
          </mxGeometry>
        </mxCell>
        <mxCell id="LFgzALB7pJh4BfB0Gn4e-61" value="clicks on &quot;Cart&quot;" style="text;html=1;align=center;verticalAlign=middle;resizable=0;points=[];autosize=1;strokeColor=none;fillColor=none;" parent="1" vertex="1">
          <mxGeometry x="-287.5" y="288.55" width="100" height="30" as="geometry" />
        </mxCell>
        <mxCell id="LFgzALB7pJh4BfB0Gn4e-64" value="display the cart" style="text;html=1;align=center;verticalAlign=middle;resizable=0;points=[];autosize=1;strokeColor=none;fillColor=none;" parent="1" vertex="1">
          <mxGeometry x="-287.5" y="450" width="100" height="30" as="geometry" />
        </mxCell>
        <mxCell id="LFgzALB7pJh4BfB0Gn4e-66" value="" style="edgeStyle=orthogonalEdgeStyle;rounded=0;orthogonalLoop=1;jettySize=auto;html=1;curved=0;dashed=1;" parent="1" source="LFgzALB7pJh4BfB0Gn4e-54" target="LFgzALB7pJh4BfB0Gn4e-20" edge="1">
          <mxGeometry x="-0.0837" y="-10" relative="1" as="geometry">
            <mxPoint x="270" y="185" as="sourcePoint" />
            <mxPoint x="130" y="185" as="targetPoint" />
            <Array as="points">
              <mxPoint x="160" y="185" />
              <mxPoint x="160" y="185" />
            </Array>
            <mxPoint as="offset" />
          </mxGeometry>
        </mxCell>
        <mxCell id="LFgzALB7pJh4BfB0Gn4e-69" value="" style="endArrow=classic;html=1;rounded=0;" parent="1" edge="1">
          <mxGeometry width="50" height="50" relative="1" as="geometry">
            <mxPoint x="-327.5" y="539" as="sourcePoint" />
            <mxPoint x="-142.5" y="539" as="targetPoint" />
            <Array as="points">
              <mxPoint x="-187.5" y="539" />
            </Array>
          </mxGeometry>
        </mxCell>
        <mxCell id="LFgzALB7pJh4BfB0Gn4e-71" value="&lt;font style=&quot;font-size: 10px;&quot;&gt;select &quot;Checkout&quot; and specifies &lt;br&gt;the payment method&lt;/font&gt;" style="text;html=1;align=center;verticalAlign=middle;resizable=0;points=[];autosize=1;strokeColor=none;fillColor=none;" parent="1" vertex="1">
          <mxGeometry x="-317.5" y="499" width="160" height="40" as="geometry" />
        </mxCell>
        <mxCell id="LFgzALB7pJh4BfB0Gn4e-73" value="&lt;div style=&quot;direction: rtl;&quot;&gt;payment gateway&lt;/div&gt;" style="shape=umlLifeline;perimeter=lifelinePerimeter;whiteSpace=wrap;html=1;container=1;dropTarget=0;collapsible=0;recursiveResize=0;outlineConnect=0;portConstraint=eastwest;newEdgeStyle={&quot;edgeStyle&quot;:&quot;elbowEdgeStyle&quot;,&quot;elbow&quot;:&quot;vertical&quot;,&quot;curved&quot;:0,&quot;rounded&quot;:0};" parent="1" vertex="1">
          <mxGeometry x="370" y="-20" width="100" height="1340" as="geometry" />
        </mxCell>
        <mxCell id="LFgzALB7pJh4BfB0Gn4e-74" value="" style="html=1;points=[[0,0,0,0,5],[0,1,0,0,-5],[1,0,0,0,5],[1,1,0,0,-5]];perimeter=orthogonalPerimeter;outlineConnect=0;targetShapes=umlLifeline;portConstraint=eastwest;newEdgeStyle={&quot;curved&quot;:0,&quot;rounded&quot;:0};" parent="LFgzALB7pJh4BfB0Gn4e-73" vertex="1">
          <mxGeometry x="45" y="570" width="10" height="269" as="geometry" />
        </mxCell>
        <mxCell id="LFgzALB7pJh4BfB0Gn4e-75" value="" style="endArrow=classic;html=1;rounded=0;" parent="1" target="LFgzALB7pJh4BfB0Gn4e-74" edge="1" source="LFgzALB7pJh4BfB0Gn4e-20">
          <mxGeometry width="50" height="50" relative="1" as="geometry">
            <mxPoint x="100" y="370" as="sourcePoint" />
            <mxPoint x="410" y="370" as="targetPoint" />
            <Array as="points">
              <mxPoint x="180" y="590" />
            </Array>
          </mxGeometry>
        </mxCell>
        <mxCell id="LFgzALB7pJh4BfB0Gn4e-76" value="send the payment request" style="text;html=1;align=center;verticalAlign=middle;resizable=0;points=[];autosize=1;strokeColor=none;fillColor=none;" parent="1" vertex="1">
          <mxGeometry x="180" y="560" width="160" height="30" as="geometry" />
        </mxCell>
        <mxCell id="LFgzALB7pJh4BfB0Gn4e-80" value="" style="edgeStyle=orthogonalEdgeStyle;rounded=0;orthogonalLoop=1;jettySize=auto;html=1;curved=0;dashed=1;" parent="1" source="LFgzALB7pJh4BfB0Gn4e-74" target="LFgzALB7pJh4BfB0Gn4e-18" edge="1">
          <mxGeometry x="-0.0837" y="-10" relative="1" as="geometry">
            <mxPoint x="425.04347826086996" y="809.05" as="sourcePoint" />
            <mxPoint x="-325" y="659.9973684210529" as="targetPoint" />
            <Array as="points">
              <mxPoint x="46" y="660" />
              <mxPoint x="46" y="661" />
            </Array>
            <mxPoint as="offset" />
          </mxGeometry>
        </mxCell>
        <mxCell id="LFgzALB7pJh4BfB0Gn4e-81" value="display the payment page" style="text;html=1;align=center;verticalAlign=middle;resizable=0;points=[];autosize=1;strokeColor=none;fillColor=none;" parent="1" vertex="1">
          <mxGeometry x="-60" y="630" width="160" height="30" as="geometry" />
        </mxCell>
        <mxCell id="LFgzALB7pJh4BfB0Gn4e-82" style="edgeStyle=orthogonalEdgeStyle;rounded=0;orthogonalLoop=1;jettySize=auto;html=1;exitX=0.5;exitY=1;exitDx=0;exitDy=0;" parent="1" edge="1">
          <mxGeometry relative="1" as="geometry">
            <mxPoint x="205.5" y="469.09000000000003" as="sourcePoint" />
            <mxPoint x="205.5" y="469.09000000000003" as="targetPoint" />
          </mxGeometry>
        </mxCell>
        <mxCell id="LFgzALB7pJh4BfB0Gn4e-83" value="" style="endArrow=classic;html=1;rounded=0;" parent="1" edge="1">
          <mxGeometry width="50" height="50" relative="1" as="geometry">
            <mxPoint x="-325" y="700" as="sourcePoint" />
            <mxPoint x="415" y="700" as="targetPoint" />
            <Array as="points">
              <mxPoint x="-100" y="700" />
              <mxPoint x="130" y="700" />
            </Array>
          </mxGeometry>
        </mxCell>
        <mxCell id="LFgzALB7pJh4BfB0Gn4e-84" value="enters payment detail" style="text;html=1;align=center;verticalAlign=middle;resizable=0;points=[];autosize=1;strokeColor=none;fillColor=none;" parent="1" vertex="1">
          <mxGeometry x="-60" y="670" width="140" height="30" as="geometry" />
        </mxCell>
        <mxCell id="LFgzALB7pJh4BfB0Gn4e-87" value="confirms the payment" style="text;html=1;align=center;verticalAlign=middle;resizable=0;points=[];autosize=1;strokeColor=none;fillColor=none;" parent="1" vertex="1">
          <mxGeometry x="200" y="720" width="140" height="30" as="geometry" />
        </mxCell>
        <mxCell id="LFgzALB7pJh4BfB0Gn4e-98" value="" style="shape=umlLifeline;perimeter=lifelinePerimeter;whiteSpace=wrap;html=1;container=1;dropTarget=0;collapsible=0;recursiveResize=0;outlineConnect=0;portConstraint=eastwest;newEdgeStyle={&quot;curved&quot;:0,&quot;rounded&quot;:0};participant=umlActor;" parent="1" vertex="1">
          <mxGeometry x="-340" width="20" height="1320" as="geometry" />
        </mxCell>
        <mxCell id="LFgzALB7pJh4BfB0Gn4e-18" value="" style="html=1;points=[[0,0,0,0,5],[0,1,0,0,-5],[1,0,0,0,5],[1,1,0,0,-5]];perimeter=orthogonalPerimeter;outlineConnect=0;targetShapes=umlLifeline;portConstraint=eastwest;newEdgeStyle={&quot;curved&quot;:0,&quot;rounded&quot;:0};" parent="LFgzALB7pJh4BfB0Gn4e-98" vertex="1">
          <mxGeometry x="5" y="65" width="10" height="1205" as="geometry" />
        </mxCell>
        <mxCell id="LFgzALB7pJh4BfB0Gn4e-99" value="customer" style="text;html=1;align=center;verticalAlign=middle;resizable=0;points=[];autosize=1;strokeColor=none;fillColor=none;" parent="1" vertex="1">
          <mxGeometry x="-365" y="-40" width="70" height="30" as="geometry" />
        </mxCell>
        <mxCell id="LFgzALB7pJh4BfB0Gn4e-104" style="edgeStyle=orthogonalEdgeStyle;rounded=0;orthogonalLoop=1;jettySize=auto;html=1;exitX=0.5;exitY=1;exitDx=0;exitDy=0;" parent="1" edge="1">
          <mxGeometry relative="1" as="geometry">
            <mxPoint x="-326.5" y="674.1700000000001" as="sourcePoint" />
            <mxPoint x="-326.5" y="674.1700000000001" as="targetPoint" />
          </mxGeometry>
        </mxCell>
        <mxCell id="tG8exCwuBNUabjfaIiy4-5" value="&lt;div style=&quot;text-align: left; direction: rtl;&quot;&gt;user panel&lt;/div&gt;" style="shape=umlLifeline;perimeter=lifelinePerimeter;whiteSpace=wrap;html=1;container=1;dropTarget=0;collapsible=0;recursiveResize=0;outlineConnect=0;portConstraint=eastwest;newEdgeStyle={&quot;edgeStyle&quot;:&quot;elbowEdgeStyle&quot;,&quot;elbow&quot;:&quot;vertical&quot;,&quot;curved&quot;:0,&quot;rounded&quot;:0};" vertex="1" parent="1">
          <mxGeometry x="-185" y="-14" width="100" height="1334" as="geometry" />
        </mxCell>
        <mxCell id="tG8exCwuBNUabjfaIiy4-7" value="" style="html=1;points=[[0,0,0,0,5],[0,1,0,0,-5],[1,0,0,0,5],[1,1,0,0,-5]];perimeter=orthogonalPerimeter;outlineConnect=0;targetShapes=umlLifeline;portConstraint=eastwest;newEdgeStyle={&quot;curved&quot;:0,&quot;rounded&quot;:0};" vertex="1" parent="tG8exCwuBNUabjfaIiy4-5">
          <mxGeometry x="45" y="74" width="10" height="546" as="geometry" />
        </mxCell>
        <mxCell id="tG8exCwuBNUabjfaIiy4-6" value="" style="html=1;points=[[0,0,0,0,5],[0,1,0,0,-5],[1,0,0,0,5],[1,1,0,0,-5]];perimeter=orthogonalPerimeter;outlineConnect=0;targetShapes=umlLifeline;portConstraint=eastwest;newEdgeStyle={&quot;curved&quot;:0,&quot;rounded&quot;:0};" vertex="1" parent="tG8exCwuBNUabjfaIiy4-5">
          <mxGeometry x="45" y="748" width="10" height="482" as="geometry" />
        </mxCell>
        <mxCell id="tG8exCwuBNUabjfaIiy4-10" value="&lt;font style=&quot;font-size: 10px;&quot;&gt;Sends a request to add the book to the cart.&lt;/font&gt;" style="text;html=1;align=center;verticalAlign=middle;resizable=0;points=[];autosize=1;strokeColor=none;fillColor=none;" vertex="1" parent="1">
          <mxGeometry x="-130" y="100" width="220" height="30" as="geometry" />
        </mxCell>
        <mxCell id="tG8exCwuBNUabjfaIiy4-11" value="" style="endArrow=classic;html=1;rounded=0;strokeColor=light-dark(#000000,#FFFFFF);" edge="1" parent="1" source="tG8exCwuBNUabjfaIiy4-7">
          <mxGeometry width="50" height="50" relative="1" as="geometry">
            <mxPoint x="-140" y="130" as="sourcePoint" />
            <mxPoint x="89.99999999999977" y="130" as="targetPoint" />
            <Array as="points">
              <mxPoint x="35" y="130" />
            </Array>
          </mxGeometry>
        </mxCell>
        <mxCell id="tG8exCwuBNUabjfaIiy4-13" value="" style="edgeStyle=orthogonalEdgeStyle;rounded=0;orthogonalLoop=1;jettySize=auto;html=1;curved=0;dashed=1;" edge="1" parent="1" source="LFgzALB7pJh4BfB0Gn4e-20" target="tG8exCwuBNUabjfaIiy4-7">
          <mxGeometry x="-0.0837" y="-10" relative="1" as="geometry">
            <mxPoint x="57.5" y="220" as="sourcePoint" />
            <mxPoint x="-97.5" y="220" as="targetPoint" />
            <Array as="points">
              <mxPoint x="-20" y="230" />
              <mxPoint x="-20" y="230" />
            </Array>
            <mxPoint as="offset" />
          </mxGeometry>
        </mxCell>
        <mxCell id="tG8exCwuBNUabjfaIiy4-14" value="&lt;font style=&quot;font-size: 10px;&quot;&gt;Sends confirmation of the cart update.&lt;/font&gt;" style="text;html=1;align=center;verticalAlign=middle;resizable=0;points=[];autosize=1;strokeColor=none;fillColor=none;" vertex="1" parent="1">
          <mxGeometry x="-115" y="200" width="190" height="30" as="geometry" />
        </mxCell>
        <mxCell id="tG8exCwuBNUabjfaIiy4-15" value="" style="edgeStyle=orthogonalEdgeStyle;rounded=0;orthogonalLoop=1;jettySize=auto;html=1;curved=0;dashed=1;" edge="1" parent="1">
          <mxGeometry x="-0.0837" y="-10" relative="1" as="geometry">
            <mxPoint x="-140" y="269.997619047619" as="sourcePoint" />
            <mxPoint x="-325" y="271.997619047619" as="targetPoint" />
            <Array as="points">
              <mxPoint x="-140" y="272" />
            </Array>
            <mxPoint as="offset" />
          </mxGeometry>
        </mxCell>
        <mxCell id="tG8exCwuBNUabjfaIiy4-16" value="&lt;font style=&quot;font-size: 10px;&quot;&gt;Displays confirmation that the book&lt;br&gt;&amp;nbsp;has been added to the cart.&lt;/font&gt;" style="text;html=1;align=center;verticalAlign=middle;resizable=0;points=[];autosize=1;strokeColor=none;fillColor=none;" vertex="1" parent="1">
          <mxGeometry x="-320" y="230" width="180" height="40" as="geometry" />
        </mxCell>
        <mxCell id="tG8exCwuBNUabjfaIiy4-17" value="&lt;font style=&quot;font-size: 10px;&quot;&gt;&amp;nbsp;Requests the cart details.&lt;/font&gt;" style="text;html=1;align=center;verticalAlign=middle;resizable=0;points=[];autosize=1;strokeColor=none;fillColor=none;" vertex="1" parent="1">
          <mxGeometry x="-90" y="318.55" width="140" height="30" as="geometry" />
        </mxCell>
        <mxCell id="tG8exCwuBNUabjfaIiy4-18" value="" style="endArrow=classic;html=1;rounded=0;strokeColor=light-dark(#000000,#FFFFFF);" edge="1" parent="1">
          <mxGeometry width="50" height="50" relative="1" as="geometry">
            <mxPoint x="-130" y="570" as="sourcePoint" />
            <mxPoint x="89.99999999999977" y="570" as="targetPoint" />
            <Array as="points">
              <mxPoint x="35" y="570" />
            </Array>
          </mxGeometry>
        </mxCell>
        <mxCell id="tG8exCwuBNUabjfaIiy4-24" value="" style="endArrow=classic;html=1;rounded=0;" edge="1" parent="1" target="tG8exCwuBNUabjfaIiy4-23" source="LFgzALB7pJh4BfB0Gn4e-20">
          <mxGeometry width="50" height="50" relative="1" as="geometry">
            <mxPoint x="120" y="271.9999999999998" as="sourcePoint" />
            <mxPoint x="270" y="272" as="targetPoint" />
            <Array as="points">
              <mxPoint x="160" y="375" />
              <mxPoint x="210" y="375" />
            </Array>
          </mxGeometry>
        </mxCell>
        <mxCell id="tG8exCwuBNUabjfaIiy4-25" value="&lt;font style=&quot;font-size: 10px;&quot;&gt;Retrieves the cart information.&lt;/font&gt;" style="text;html=1;align=center;verticalAlign=middle;resizable=0;points=[];autosize=1;strokeColor=none;fillColor=none;" vertex="1" parent="1">
          <mxGeometry x="100" y="340" width="160" height="30" as="geometry" />
        </mxCell>
        <mxCell id="tG8exCwuBNUabjfaIiy4-26" value="&lt;div style=&quot;direction: rtl;&quot;&gt;&lt;font style=&quot;font-size: 10px;&quot;&gt;Sends the cart information&lt;br&gt;&amp;nbsp;(books and total price)&lt;/font&gt;&lt;/div&gt;" style="text;html=1;align=center;verticalAlign=middle;resizable=0;points=[];autosize=1;strokeColor=none;fillColor=none;" vertex="1" parent="1">
          <mxGeometry x="110" y="380" width="140" height="40" as="geometry" />
        </mxCell>
        <mxCell id="tG8exCwuBNUabjfaIiy4-27" value="" style="edgeStyle=orthogonalEdgeStyle;rounded=0;orthogonalLoop=1;jettySize=auto;html=1;curved=0;dashed=1;" edge="1" parent="1">
          <mxGeometry x="-0.0837" y="-10" relative="1" as="geometry">
            <mxPoint x="255" y="419.99703703703693" as="sourcePoint" />
            <mxPoint x="100" y="419.99703703703693" as="targetPoint" />
            <Array as="points">
              <mxPoint x="180" y="419.96" />
              <mxPoint x="180" y="419.96" />
            </Array>
            <mxPoint as="offset" />
          </mxGeometry>
        </mxCell>
        <mxCell id="tG8exCwuBNUabjfaIiy4-28" value="" style="edgeStyle=orthogonalEdgeStyle;rounded=0;orthogonalLoop=1;jettySize=auto;html=1;curved=0;dashed=1;" edge="1" parent="1">
          <mxGeometry x="-0.0837" y="-10" relative="1" as="geometry">
            <mxPoint x="90" y="450" as="sourcePoint" />
            <mxPoint x="-130" y="450" as="targetPoint" />
            <Array as="points">
              <mxPoint x="-20" y="450" />
              <mxPoint x="-20" y="450" />
            </Array>
            <mxPoint as="offset" />
          </mxGeometry>
        </mxCell>
        <mxCell id="tG8exCwuBNUabjfaIiy4-29" value="&lt;font style=&quot;font-size: 10px;&quot;&gt;Sends the cart information.&lt;/font&gt;" style="text;html=1;align=center;verticalAlign=middle;resizable=0;points=[];autosize=1;strokeColor=none;fillColor=none;" vertex="1" parent="1">
          <mxGeometry x="-90" y="420" width="140" height="30" as="geometry" />
        </mxCell>
        <mxCell id="tG8exCwuBNUabjfaIiy4-30" value="&lt;font style=&quot;font-size: 10px;&quot;&gt;Sends the payment request&lt;br&gt;&amp;nbsp;with payment details.&lt;/font&gt;" style="text;html=1;align=center;verticalAlign=middle;resizable=0;points=[];autosize=1;strokeColor=none;fillColor=none;" vertex="1" parent="1">
          <mxGeometry x="-95" y="534" width="150" height="40" as="geometry" />
        </mxCell>
        <mxCell id="LFgzALB7pJh4BfB0Gn4e-86" value="" style="edgeStyle=orthogonalEdgeStyle;rounded=0;orthogonalLoop=1;jettySize=auto;html=1;curved=0;dashed=1;" parent="1" source="LFgzALB7pJh4BfB0Gn4e-74" target="LFgzALB7pJh4BfB0Gn4e-85" edge="1">
          <mxGeometry x="-0.0837" y="-10" relative="1" as="geometry">
            <mxPoint x="433.9500000000003" y="720.4200000000001" as="sourcePoint" />
            <mxPoint x="-128.5" y="715" as="targetPoint" />
            <Array as="points">
              <mxPoint x="270" y="750" />
              <mxPoint x="270" y="750" />
            </Array>
            <mxPoint as="offset" />
          </mxGeometry>
        </mxCell>
        <mxCell id="LFgzALB7pJh4BfB0Gn4e-95" value="&lt;div style=&quot;direction: rtl;&quot;&gt;&lt;span style=&quot;font-size: 10px; background-color: transparent; color: light-dark(rgb(0, 0, 0), rgb(255, 255, 255));&quot;&gt;confirms the purchase record&lt;/span&gt;&lt;/div&gt;" style="text;html=1;align=center;verticalAlign=middle;resizable=0;points=[];autosize=1;strokeColor=none;fillColor=none;" parent="1" vertex="1">
          <mxGeometry x="110" y="810" width="150" height="30" as="geometry" />
        </mxCell>
        <mxCell id="LFgzALB7pJh4BfB0Gn4e-96" style="edgeStyle=orthogonalEdgeStyle;rounded=0;orthogonalLoop=1;jettySize=auto;html=1;exitX=0.5;exitY=1;exitDx=0;exitDy=0;" parent="1" edge="1">
          <mxGeometry relative="1" as="geometry">
            <mxPoint x="12" y="860.09" as="sourcePoint" />
            <mxPoint x="12" y="860.09" as="targetPoint" />
          </mxGeometry>
        </mxCell>
        <mxCell id="LFgzALB7pJh4BfB0Gn4e-102" value="" style="edgeStyle=orthogonalEdgeStyle;rounded=0;orthogonalLoop=1;jettySize=auto;html=1;curved=0;dashed=1;" parent="1" edge="1">
          <mxGeometry x="-0.0837" y="-10" relative="1" as="geometry">
            <mxPoint x="85" y="870" as="sourcePoint" />
            <mxPoint x="-130" y="870.0504347826089" as="targetPoint" />
            <Array as="points">
              <mxPoint x="-75" y="870.92" />
              <mxPoint x="-75" y="870.92" />
            </Array>
            <mxPoint as="offset" />
          </mxGeometry>
        </mxCell>
        <mxCell id="LFgzALB7pJh4BfB0Gn4e-103" value="&lt;span style=&quot;font-size: 10px;&quot;&gt;Sends purchase confirmation &lt;br&gt;and invoice details.&lt;/span&gt;" style="text;html=1;align=center;verticalAlign=middle;resizable=0;points=[];autosize=1;strokeColor=none;fillColor=none;" parent="1" vertex="1">
          <mxGeometry x="-95" y="830" width="150" height="40" as="geometry" />
        </mxCell>
        <mxCell id="LFgzALB7pJh4BfB0Gn4e-111" value="" style="endArrow=classic;html=1;rounded=0;" parent="1" edge="1">
          <mxGeometry width="50" height="50" relative="1" as="geometry">
            <mxPoint x="100" y="1047" as="sourcePoint" />
            <mxPoint x="255" y="1047" as="targetPoint" />
            <Array as="points">
              <mxPoint x="250" y="1047" />
            </Array>
          </mxGeometry>
        </mxCell>
        <mxCell id="LFgzALB7pJh4BfB0Gn4e-112" value="&lt;span style=&quot;font-size: 10px;&quot;&gt;Retrieves the user&#39;s&lt;/span&gt;&lt;div&gt;&lt;span style=&quot;font-size: 10px;&quot;&gt;&amp;nbsp;library data.&lt;/span&gt;&lt;/div&gt;" style="text;html=1;align=center;verticalAlign=middle;resizable=0;points=[];autosize=1;strokeColor=none;fillColor=none;" parent="1" vertex="1">
          <mxGeometry x="120" y="1010" width="110" height="40" as="geometry" />
        </mxCell>
        <mxCell id="LFgzALB7pJh4BfB0Gn4e-113" value="" style="edgeStyle=orthogonalEdgeStyle;rounded=0;orthogonalLoop=1;jettySize=auto;html=1;curved=0;dashed=1;" parent="1" edge="1">
          <mxGeometry x="-0.0837" y="-10" relative="1" as="geometry">
            <mxPoint x="255" y="1100" as="sourcePoint" />
            <mxPoint x="100" y="1100" as="targetPoint" />
            <Array as="points">
              <mxPoint x="140" y="1100" />
              <mxPoint x="140" y="1100" />
            </Array>
            <mxPoint as="offset" />
          </mxGeometry>
        </mxCell>
        <mxCell id="LFgzALB7pJh4BfB0Gn4e-114" value="&lt;font style=&quot;font-size: 10px;&quot;&gt;Sends the list of&amp;nbsp;&lt;/font&gt;&lt;div&gt;&lt;font style=&quot;font-size: 10px;&quot;&gt;purchased books.&lt;/font&gt;&lt;/div&gt;" style="text;html=1;align=center;verticalAlign=middle;resizable=0;points=[];autosize=1;strokeColor=none;fillColor=none;" parent="1" vertex="1">
          <mxGeometry x="130" y="1060" width="100" height="40" as="geometry" />
        </mxCell>
        <mxCell id="LFgzALB7pJh4BfB0Gn4e-116" value="&lt;font style=&quot;font-size: 9px;&quot;&gt;Displays the list of books in &quot;My Library&quot;,&lt;/font&gt;&lt;div&gt;&lt;font style=&quot;font-size: 9px;&quot;&gt;&amp;nbsp;including the newly purchased book.&lt;/font&gt;&lt;/div&gt;" style="text;html=1;align=center;verticalAlign=middle;resizable=0;points=[];autosize=1;strokeColor=none;fillColor=none;" parent="1" vertex="1">
          <mxGeometry x="-325" y="1150" width="190" height="40" as="geometry" />
        </mxCell>
        <mxCell id="tG8exCwuBNUabjfaIiy4-32" style="edgeStyle=orthogonalEdgeStyle;rounded=0;orthogonalLoop=1;jettySize=auto;html=1;exitX=0.5;exitY=1;exitDx=0;exitDy=0;" edge="1" parent="1">
          <mxGeometry relative="1" as="geometry">
            <mxPoint x="-175.5" y="920.09" as="sourcePoint" />
            <mxPoint x="-175.5" y="920.09" as="targetPoint" />
          </mxGeometry>
        </mxCell>
        <mxCell id="tG8exCwuBNUabjfaIiy4-33" value="" style="edgeStyle=orthogonalEdgeStyle;rounded=0;orthogonalLoop=1;jettySize=auto;html=1;curved=0;dashed=1;" edge="1" parent="1" source="tG8exCwuBNUabjfaIiy4-6" target="LFgzALB7pJh4BfB0Gn4e-18">
          <mxGeometry x="-0.0837" y="-10" relative="1" as="geometry">
            <mxPoint x="-102.5" y="930" as="sourcePoint" />
            <mxPoint x="-317.5" y="930.0504347826089" as="targetPoint" />
            <Array as="points">
              <mxPoint x="-170" y="920" />
              <mxPoint x="-170" y="920" />
            </Array>
            <mxPoint as="offset" />
          </mxGeometry>
        </mxCell>
        <mxCell id="tG8exCwuBNUabjfaIiy4-34" value="&lt;font style=&quot;font-size: 9px;&quot;&gt;Displays the purchase invoice and&amp;nbsp;&lt;/font&gt;&lt;div&gt;&lt;font style=&quot;font-size: 9px;&quot;&gt;adds the book to the &quot;My Library&quot; section.&lt;/font&gt;&lt;/div&gt;" style="text;html=1;align=center;verticalAlign=middle;resizable=0;points=[];autosize=1;strokeColor=none;fillColor=none;" vertex="1" parent="1">
          <mxGeometry x="-325" y="880" width="190" height="40" as="geometry" />
        </mxCell>
        <mxCell id="tG8exCwuBNUabjfaIiy4-35" value="" style="endArrow=classic;html=1;rounded=0;strokeColor=light-dark(#000000,#FFFFFF);" edge="1" parent="1">
          <mxGeometry width="50" height="50" relative="1" as="geometry">
            <mxPoint x="-130" y="354.57" as="sourcePoint" />
            <mxPoint x="89.99999999999977" y="354.57" as="targetPoint" />
            <Array as="points">
              <mxPoint x="35" y="354.57" />
            </Array>
          </mxGeometry>
        </mxCell>
        <mxCell id="tG8exCwuBNUabjfaIiy4-36" value="&lt;font style=&quot;font-size: 10px;&quot;&gt;Clicks on &quot;My Library&quot; to view&lt;/font&gt;&lt;div&gt;&lt;font style=&quot;font-size: 10px;&quot;&gt;&amp;nbsp;their books.&lt;/font&gt;&lt;/div&gt;" style="text;html=1;align=center;verticalAlign=middle;resizable=0;points=[];autosize=1;strokeColor=none;fillColor=none;" vertex="1" parent="1">
          <mxGeometry x="-310" y="930" width="150" height="40" as="geometry" />
        </mxCell>
        <mxCell id="tG8exCwuBNUabjfaIiy4-37" value="" style="endArrow=classic;html=1;rounded=0;" edge="1" parent="1" target="tG8exCwuBNUabjfaIiy4-6">
          <mxGeometry width="50" height="50" relative="1" as="geometry">
            <mxPoint x="-322.5" y="980" as="sourcePoint" />
            <mxPoint x="-137.5" y="980" as="targetPoint" />
            <Array as="points">
              <mxPoint x="-182.5" y="980" />
            </Array>
          </mxGeometry>
        </mxCell>
        <mxCell id="tG8exCwuBNUabjfaIiy4-38" value="Requests the user&#39;s library data." style="text;html=1;align=center;verticalAlign=middle;resizable=0;points=[];autosize=1;strokeColor=none;fillColor=none;" vertex="1" parent="1">
          <mxGeometry x="-120" y="990" width="200" height="30" as="geometry" />
        </mxCell>
        <mxCell id="tG8exCwuBNUabjfaIiy4-39" value="" style="endArrow=classic;html=1;rounded=0;strokeColor=light-dark(#000000,#FFFFFF);" edge="1" parent="1">
          <mxGeometry width="50" height="50" relative="1" as="geometry">
            <mxPoint x="-130" y="1030" as="sourcePoint" />
            <mxPoint x="89.99999999999977" y="1030" as="targetPoint" />
            <Array as="points">
              <mxPoint x="35" y="1030" />
            </Array>
          </mxGeometry>
        </mxCell>
        <mxCell id="tG8exCwuBNUabjfaIiy4-40" style="edgeStyle=orthogonalEdgeStyle;rounded=0;orthogonalLoop=1;jettySize=auto;html=1;exitX=0.5;exitY=1;exitDx=0;exitDy=0;" edge="1" parent="1">
          <mxGeometry relative="1" as="geometry">
            <mxPoint x="22" y="870.09" as="sourcePoint" />
            <mxPoint x="22" y="870.09" as="targetPoint" />
          </mxGeometry>
        </mxCell>
        <mxCell id="tG8exCwuBNUabjfaIiy4-41" value="" style="edgeStyle=orthogonalEdgeStyle;rounded=0;orthogonalLoop=1;jettySize=auto;html=1;curved=0;dashed=1;" edge="1" parent="1">
          <mxGeometry x="-0.0837" y="-10" relative="1" as="geometry">
            <mxPoint x="87.5" y="1140" as="sourcePoint" />
            <mxPoint x="-127.5" y="1140.050434782609" as="targetPoint" />
            <Array as="points">
              <mxPoint x="-72.5" y="1140.92" />
              <mxPoint x="-72.5" y="1140.92" />
            </Array>
            <mxPoint as="offset" />
          </mxGeometry>
        </mxCell>
        <mxCell id="tG8exCwuBNUabjfaIiy4-42" value="&lt;font style=&quot;font-size: 11px;&quot;&gt;Sends the user&#39;s library information.&lt;/font&gt;" style="text;html=1;align=center;verticalAlign=middle;resizable=0;points=[];autosize=1;strokeColor=none;fillColor=none;" vertex="1" parent="1">
          <mxGeometry x="-125" y="1110" width="200" height="30" as="geometry" />
        </mxCell>
        <mxCell id="tG8exCwuBNUabjfaIiy4-44" value="" style="edgeStyle=orthogonalEdgeStyle;rounded=0;orthogonalLoop=1;jettySize=auto;html=1;curved=0;dashed=1;" edge="1" parent="1">
          <mxGeometry x="-0.0837" y="-10" relative="1" as="geometry">
            <mxPoint x="-140" y="1190" as="sourcePoint" />
            <mxPoint x="-325" y="1190" as="targetPoint" />
            <Array as="points">
              <mxPoint x="-170" y="1190" />
              <mxPoint x="-170" y="1190" />
            </Array>
            <mxPoint as="offset" />
          </mxGeometry>
        </mxCell>
      </root>
    </mxGraphModel>
  </diagram>
</mxfile>
